<svg width="24" height="24" viewBox="0 0 24 24" fill="none" xmlns="http://www.w3.org/2000/svg">
<g id="google logo" clip-path="url(#clip0_92_13518)">
<path id="Vector" d="M1.27557 6.59057C3.24211 2.68406 7.28153 0 11.9588 0C15.1876 0 17.885 1.1826 19.9578 3.10928L16.5828 6.40461C15.7191 5.59402 14.2043 4.62403 11.9588 4.62403C8.79637 4.62403 6.11231 6.7102 5.14223 9.59359C4.90305 10.3377 4.75695 11.1349 4.75695 11.9588C4.75695 12.7826 4.90305 13.5799 5.15551 14.324C6.11231 17.2074 8.79637 19.2934 11.9588 19.2934C13.7393 19.2934 15.0946 18.8018 16.1045 18.0976C17.699 16.9815 18.4165 15.3205 18.5493 14.2176H11.9588V9.77963H23.1867C23.3594 10.5237 23.4392 11.2413 23.4392 12.2245C23.4392 15.8653 22.137 18.9347 19.8781 21.0209C17.8982 22.8545 15.1876 23.9176 11.9588 23.9176C7.28153 23.9176 3.24211 21.2334 1.27557 17.3269C0.465069 15.7058 0 13.8855 0 11.9588C0 10.0321 0.465069 8.21166 1.27557 6.59057Z" fill="#232632"/>
</g>
<defs>
<clipPath id="clip0_92_13518">
<rect width="24" height="24" fill="white"/>
</clipPath>
</defs>
</svg>
