<svg width="20" height="20" viewBox="0 0 20 20" fill="none" xmlns="http://www.w3.org/2000/svg">
<g id="Icon/Lock">
<path id="Border" fill-rule="evenodd" clip-rule="evenodd" d="M6 8V5.5C6 3.567 7.567 2 9.5 2H10.5C12.433 2 14 3.567 14 5.5V8H17V18H3V8H6ZM7.5 8H12.5V5.5C12.5 4.39543 11.6046 3.5 10.5 3.5H9.5C8.39543 3.5 7.5 4.39543 7.5 5.5V8ZM10 11C10.4142 11 10.75 11.3358 10.75 11.75V14.25C10.75 14.6642 10.4142 15 10 15C9.58579 15 9.25 14.6642 9.25 14.25V11.75C9.25 11.3358 9.58579 11 10 11ZM4.5 9.5V16.5H15.5V9.5H4.5Z" fill="white"/>
</g>
</svg>
