<svg width="25" height="24" viewBox="0 0 25 24" fill="none" xmlns="http://www.w3.org/2000/svg">
<g id="Apple logo" clip-path="url(#clip0_92_13222)">
<g id="Group">
<g id="Group_2">
<path id="Vector" d="M19.0708 12.7522C19.0433 9.71588 21.5529 8.25699 21.666 8.18528C20.254 6.11967 18.0587 5.83838 17.2755 5.80528C15.4085 5.61499 13.6297 6.90565 12.681 6.90565C11.7323 6.90565 10.2706 5.83286 8.72073 5.8632C6.68269 5.89353 4.80461 7.0463 3.75388 8.87198C1.63863 12.5399 3.21335 17.9811 5.2762 20.9623C6.28557 22.4184 7.48522 24.0593 9.06545 23.9987C10.5878 23.938 11.1614 23.0141 12.9981 23.0141C14.8348 23.0141 15.3533 23.9987 16.9584 23.9683C18.5937 23.9352 19.6307 22.4791 20.6318 21.0174C21.7873 19.3269 22.2644 17.6887 22.292 17.6033C22.2561 17.5895 19.1039 16.3815 19.0708 12.7522Z" fill="#232632"/>
</g>
<path id="Vector_2" d="M16.0511 3.83338C16.8894 2.8185 17.4548 1.40649 17.3004 0C16.0924 0.0496408 14.6308 0.805285 13.7648 1.82016C12.9899 2.71646 12.3087 4.15328 12.4935 5.5322C13.8365 5.63699 15.2127 4.8455 16.0511 3.83338Z" fill="#232632"/>
</g>
</g>
<defs>
<clipPath id="clip0_92_13222">
<rect width="24" height="24" fill="white" transform="translate(0.5)"/>
</clipPath>
</defs>
</svg>
