<svg width="32" height="32" viewBox="0 0 32 32" fill="none" xmlns="http://www.w3.org/2000/svg">
<g id="Icon/Social network/GitHub">
<path id="GitHub" fill-rule="evenodd" clip-rule="evenodd" d="M2 0C0.895431 0 0 0.895431 0 2V30C0 31.1046 0.895431 32 2 32H12.2933C12.2221 31.7913 12.1763 31.5491 12.1763 31.249V28.6068H10.2584C9.21424 28.6068 8.28582 28.152 7.83559 27.3069C7.68414 27.0224 7.57064 26.6922 7.45154 26.3456C7.17757 25.5486 6.87394 24.6652 6.01053 24.0528C5.64297 23.7604 5.92277 23.4267 6.34629 23.4718C7.12846 23.696 7.77709 24.2396 8.38756 25.0461C8.99549 25.8538 9.28165 26.0367 10.4174 26.0367C10.9681 26.0367 11.7922 26.0045 12.568 25.8808C12.9852 24.8077 13.7063 23.8196 14.5877 23.3533C9.50549 22.8238 7.08013 20.2628 7.08013 16.7858C7.08013 15.2889 7.70968 13.8409 8.77928 12.6209C8.42826 11.41 7.98694 8.94042 8.91409 8C11.2008 8 12.5833 9.50209 12.9152 9.90789C14.0548 9.5124 15.3063 9.28825 16.6213 9.28825C17.9389 9.28825 19.1955 9.5124 20.3376 9.91047C20.6657 9.50725 22.0495 8 24.3413 8C25.2723 8.94171 24.8259 11.4216 24.471 12.63C25.5343 13.8473 26.16 15.2915 26.16 16.7858C26.16 20.2602 23.7385 22.82 18.6639 23.352C20.0603 24.0902 21.0791 26.1643 21.0791 27.7269V31.249C21.0791 31.3829 21.0498 31.8853 21.0346 32H30C31.1046 32 32 31.1046 32 30V2C32 0.895431 31.1046 0 30 0H2Z" fill="#232632"/>
</g>
</svg>
