<svg width="32" height="32" viewBox="0 0 32 32" fill="none" xmlns="http://www.w3.org/2000/svg">
<g id="Icon/Social network/Pinterest">
<path id="Pinterest" fill-rule="evenodd" clip-rule="evenodd" d="M15.999 0C7.16302 0 0 7.16302 0 15.999C0 22.7769 4.21692 28.566 10.1684 30.8972C10.0286 29.6313 9.9023 27.6897 10.224 26.3078C10.5148 25.0591 12.1001 18.3553 12.1001 18.3553C12.1001 18.3553 11.6215 17.3969 11.6215 15.9799C11.6215 13.7553 12.911 12.0944 14.5165 12.0944C15.8814 12.0944 16.5407 13.1192 16.5407 14.3481C16.5407 15.7208 15.6668 17.7731 15.2156 19.675C14.8388 21.2674 16.0143 22.566 17.5849 22.566C20.4285 22.566 22.6142 19.5677 22.6142 15.2397C22.6142 11.409 19.8618 8.73075 15.9314 8.73075C11.3791 8.73075 8.70715 12.1452 8.70715 15.6738C8.70715 17.0489 9.23685 18.5234 9.89784 19.325C10.0285 19.4834 10.0477 19.6222 10.0088 19.7839C9.88734 20.2892 9.61744 21.3759 9.56446 21.5983C9.49456 21.8911 9.33246 21.9533 9.02938 21.8122C7.03108 20.8821 5.7819 17.9607 5.7819 15.6142C5.7819 10.5673 9.44879 5.93246 16.353 5.93246C21.903 5.93246 26.2161 9.88735 26.2161 15.1727C26.2161 20.6866 22.7394 25.1241 17.9141 25.1241C16.2929 25.1241 14.7688 24.2818 14.2471 23.287C14.2471 23.287 13.4449 26.3416 13.2504 27.0902C12.889 28.4799 11.9141 30.2218 11.2619 31.2845C12.7588 31.7479 14.3496 31.9979 15.999 31.9979C24.835 31.9979 31.998 24.8349 31.998 15.999C31.998 7.16302 24.835 0 15.999 0Z" fill="#232632"/>
</g>
</svg>
