<svg width="19" height="18" viewBox="0 0 19 18" fill="none" xmlns="http://www.w3.org/2000/svg">
<g id="Icon/info">
<g id="Vector">
<path d="M9.00428 13.4644C8.62181 13.4644 8.31141 13.154 8.31141 12.7716V7.29997C8.31141 6.91753 8.62181 6.60715 9.00428 6.60715C9.38675 6.60715 9.69715 6.91753 9.69715 7.29997V12.7716C9.69715 13.1544 9.38709 13.4644 9.00428 13.4644Z" fill="#232632"/>
<path d="M9.00428 5.91467C8.82067 5.91467 8.64399 5.84192 8.51581 5.71028C8.38416 5.58211 8.31141 5.40544 8.31141 5.22184C8.31141 5.03824 8.38416 4.86157 8.51581 4.7334C8.77217 4.47359 9.23639 4.47359 9.49275 4.72993C9.6244 4.86157 9.69715 5.03824 9.69715 5.22184C9.69715 5.40197 9.6244 5.58211 9.49275 5.71028C9.36457 5.84192 9.18789 5.91467 9.00428 5.91467Z" fill="#232632"/>
<path d="M8.98107 18C8.19293 18 7.41171 17.8975 6.65891 17.6948C3.41488 16.8222 0.874813 14.1351 0.18783 10.8486C-0.512317 7.50055 0.77989 3.98099 3.48036 1.88207C5.0414 0.668578 7.01019 0 9.02437 0C10.4188 0 11.8035 0.324243 13.0292 0.937049C16.056 2.45122 18.0116 5.61467 18.0116 8.99671C18.0116 11.7562 16.7094 14.416 14.5282 16.1114C12.9616 17.3293 10.9914 18 8.98107 18ZM9.02472 1.38565C7.31714 1.38565 5.65009 1.95031 4.3312 2.97604C2.04577 4.75245 0.951722 7.73126 1.54447 10.5649C2.12579 13.3449 4.27474 15.6184 7.0192 16.3566C7.65457 16.5274 8.31487 16.6143 8.98107 16.6143H8.98141C10.6852 16.6143 12.3529 16.0473 13.678 15.0174C15.5242 13.5825 16.6262 11.3319 16.6262 8.99671C16.6262 6.13499 14.9713 3.4579 12.4097 2.17652C11.3753 1.65932 10.205 1.38565 9.02472 1.38565Z" fill="#232632"/>
</g>
</g>
</svg>
