<svg width="18" height="18" viewBox="0 0 18 18" fill="none" xmlns="http://www.w3.org/2000/svg">
<g id="Icon/Chart">
<path id="Border" fill-rule="evenodd" clip-rule="evenodd" d="M9 0C4.032 0 0 4.032 0 9C0 13.968 4.032 18 9 18C13.968 18 18 13.968 18 9C18 4.032 13.968 0 9 0ZM8.1 16.137C4.554 15.696 1.8 12.663 1.8 9C1.8 5.337 4.554 2.304 8.1 1.863V16.137ZM9.9 16.137V9.9H16.137C15.732 13.149 13.149 15.732 9.9 16.137ZM9.9 8.1V1.863C13.149 2.268 15.732 4.851 16.137 8.1H9.9Z" fill="white"/>
</g>
</svg>
