<svg width="17" height="16" viewBox="0 0 17 16" fill="none" xmlns="http://www.w3.org/2000/svg">
<g clip-path="url(#clip0_661_8072)">
<path fill-rule="evenodd" clip-rule="evenodd" d="M15.1495 5.9544C15.1495 5.02217 15.0431 4.19649 15.0099 3.88353C14.9976 3.78262 14.9654 3.68516 14.9151 3.59685C14.8649 3.50854 14.7976 3.43113 14.7171 3.36915C14.6367 3.30717 14.5447 3.26185 14.4466 3.23584C14.3485 3.20983 14.2462 3.20365 14.1457 3.21765C13.9462 3.21765 13.5141 3.29756 13.0289 3.31753C12.5829 3.34306 12.1355 3.30721 11.6993 3.21099C11.1731 3.03051 10.6809 2.76264 10.2434 2.4186C9.86438 2.15121 9.50452 1.8575 9.1665 1.53965C9.02492 1.40718 8.8384 1.3335 8.64465 1.3335C8.45091 1.3335 8.26439 1.40718 8.1228 1.53965C7.79771 1.84476 7.45593 2.13153 7.09905 2.39863C6.65883 2.74719 6.16486 3.02158 5.63654 3.21099C5.13965 3.32345 4.6292 3.36382 4.12085 3.33085C3.7046 3.31359 3.28961 3.27357 2.87771 3.21099C2.77706 3.19605 2.67444 3.20156 2.57596 3.22719C2.47748 3.25283 2.38517 3.29807 2.30452 3.36021C2.22387 3.42235 2.15654 3.50012 2.10654 3.58888C2.05654 3.67765 2.0249 3.77559 2.01351 3.87687C1.98027 4.19649 1.89385 5.02883 1.85396 5.9544C1.79806 6.87914 1.85611 7.80725 2.0268 8.71777C2.50813 10.2263 3.39338 11.5736 4.58619 12.6131C5.53429 13.5089 6.56234 14.3158 7.65746 15.0236C7.95095 15.2255 8.29861 15.3335 8.65462 15.3335C9.01064 15.3335 9.3583 15.2255 9.65179 15.0236C10.6888 14.2973 11.6588 13.4795 12.5502 12.5798C13.6732 11.5327 14.5048 10.211 14.9634 8.74441C15.138 7.82539 15.2005 6.88852 15.1495 5.9544V5.9544Z" stroke="black" stroke-width="1.5" stroke-linecap="round" stroke-linejoin="round"/>
</g>
<defs>
<clipPath id="clip0_661_8072">
<rect width="16" height="16" fill="white" transform="translate(0.5)"/>
</clipPath>
</defs>
</svg>
