<svg width="24" height="24" viewBox="0 0 24 24" fill="none" xmlns="http://www.w3.org/2000/svg">
<path d="M11.5023 14.6585L6.65505 13.0387L11.5023 10.6151L16.3496 13.0387L11.5023 14.6585ZM11.5023 16.5062C11.4042 16.5079 11.3066 16.4916 11.2144 16.4582L6.19792 14.7857C6.12601 14.7615 6.04829 14.7606 5.97587 14.7832C5.90345 14.8058 5.84002 14.8508 5.79465 14.9116C5.74927 14.9724 5.72427 15.046 5.72322 15.1218C5.72217 15.1977 5.74511 15.2719 5.78878 15.334L10.6985 22.3734C10.7881 22.5038 10.9081 22.6104 11.0482 22.6841C11.1882 22.7578 11.3441 22.7963 11.5023 22.7963C11.6606 22.7963 11.8165 22.7578 11.9565 22.6841C12.0966 22.6104 12.2166 22.5038 12.3062 22.3734L17.2159 15.334C17.2596 15.2719 17.2825 15.1977 17.2815 15.1218C17.2804 15.046 17.2554 14.9724 17.21 14.9116C17.1647 14.8508 17.1012 14.8058 17.0288 14.7832C16.9564 14.7606 16.8787 14.7615 16.8068 14.7857L11.7903 16.4582C11.698 16.4916 11.6004 16.5079 11.5023 16.5062ZM11.9103 8.80335L16.9016 11.2978C16.9703 11.3335 17.0488 11.3461 17.1253 11.3337C17.2018 11.3213 17.2722 11.2845 17.3261 11.2288C17.3801 11.1732 17.4146 11.1016 17.4245 11.0247C17.4345 10.9479 17.4194 10.8698 17.3815 10.8023L12.3662 1.70039C12.2798 1.54739 12.1542 1.4201 12.0024 1.33153C11.8507 1.24296 11.6781 1.19629 11.5023 1.19629C11.3266 1.19629 11.154 1.24296 11.0022 1.33153C10.8505 1.4201 10.7249 1.54739 10.6385 1.70039L5.6232 10.8023C5.58527 10.8698 5.57017 10.9479 5.58014 11.0247C5.59011 11.1016 5.62462 11.1732 5.67854 11.2288C5.73246 11.2845 5.8029 11.3213 5.8794 11.3337C5.9559 11.3461 6.03437 11.3335 6.10313 11.2978L11.0944 8.80335C11.2222 8.74406 11.3614 8.71334 11.5023 8.71334C11.6432 8.71334 11.7825 8.74406 11.9103 8.80335Z" fill="#232632"/>
</svg>
