<svg width="24" height="24" viewBox="0 0 24 24" fill="none" xmlns="http://www.w3.org/2000/svg">
<path d="M12.0004 20.3996C11.9033 20.3996 11.8062 20.3742 11.7192 20.3234C11.6247 20.2682 9.37951 18.9494 7.10215 16.9622C5.75238 15.7844 4.67493 14.6163 3.89981 13.4903C2.89676 12.0332 2.39235 10.6316 2.40049 9.32449C2.41001 7.80351 2.94847 6.37312 3.9168 5.29678C4.90147 4.20231 6.21554 3.59961 7.61702 3.59961C9.41315 3.59961 11.0553 4.61752 12.0004 6.23001C12.9455 4.61756 14.5877 3.59961 16.3838 3.59961C17.7079 3.59961 18.9711 4.14343 19.941 5.13091C21.0054 6.21457 21.6102 7.74573 21.6003 9.3317C21.5921 10.6365 21.0782 12.036 20.073 13.4911C19.2955 14.6165 18.2195 15.7841 16.875 16.9616C14.606 18.9485 12.377 20.2674 12.2832 20.3225C12.1958 20.3739 12.098 20.3996 12.0004 20.3996Z" fill="#191B23"/>
</svg>