<svg width="24" height="24" viewBox="0 0 24 24" fill="none" xmlns="http://www.w3.org/2000/svg">
<g id="Icon/Share">
<path id="Border" fill-rule="evenodd" clip-rule="evenodd" d="M7.53434 14.7085C6.99044 15.2592 6.23502 15.6004 5.3999 15.6004C3.74305 15.6004 2.3999 14.2572 2.3999 12.6004C2.3999 10.9435 3.74305 9.60039 5.3999 9.60039C6.25497 9.60039 7.02649 9.95812 7.57295 10.5321L15.681 6.09598C15.628 5.87274 15.5999 5.63984 15.5999 5.40039C15.5999 3.74354 16.943 2.40039 18.5999 2.40039C20.2568 2.40039 21.5999 3.74354 21.5999 5.40039C21.5999 7.05725 20.2568 8.40039 18.5999 8.40039C17.7733 8.40039 17.0248 8.06608 16.4822 7.5253L8.33614 11.9822C8.37793 12.1817 8.3999 12.3885 8.3999 12.6004C8.3999 12.775 8.38499 12.9461 8.35637 13.1125L15.2646 16.4932C15.8085 15.942 16.5643 15.6004 17.3999 15.6004C19.0568 15.6004 20.3999 16.9435 20.3999 18.6004C20.3999 20.2572 19.0568 21.6004 17.3999 21.6004C15.743 21.6004 14.3999 20.2572 14.3999 18.6004C14.3999 18.4263 14.4147 18.2556 14.4432 18.0896L7.53434 14.7085ZM18.5999 6.60039C19.2626 6.60039 19.7999 6.06313 19.7999 5.40039C19.7999 4.73765 19.2626 4.20039 18.5999 4.20039C17.9372 4.20039 17.3999 4.73765 17.3999 5.40039C17.3999 6.06313 17.9372 6.60039 18.5999 6.60039ZM5.3999 13.8004C6.06264 13.8004 6.5999 13.2631 6.5999 12.6004C6.5999 11.9376 6.06264 11.4004 5.3999 11.4004C4.73716 11.4004 4.1999 11.9376 4.1999 12.6004C4.1999 13.2631 4.73716 13.8004 5.3999 13.8004ZM17.3999 19.8004C18.0626 19.8004 18.5999 19.2631 18.5999 18.6004C18.5999 17.9376 18.0626 17.4004 17.3999 17.4004C16.7372 17.4004 16.1999 17.9376 16.1999 18.6004C16.1999 19.2631 16.7372 19.8004 17.3999 19.8004Z" fill="#191B23"/>
</g>
</svg>
