<svg width="16" height="16" viewBox="0 0 16 16" fill="none" xmlns="http://www.w3.org/2000/svg">
<g id="Icon/Eye Closed">
<path id="Border" fill-rule="evenodd" clip-rule="evenodd" d="M11.6317 4.18144L11.6358 4.18356L13.7208 2.40039L14.5018 3.31152L12.7335 4.82378L11.7874 5.63365L10.171 7.01535L10.1715 7.01655L9.18654 7.85952L9.18624 7.85753L7.63573 9.18357L7.63841 9.18442L6.65382 10.0271L6.6514 10.0254L5.46893 11.0367L5.47223 11.0383L4.50308 11.8677L4.49954 11.8657L2.34065 13.7121L1.55972 12.801L3.43308 11.1988L4.3652 10.4001L4.36618 10.4008L5.85851 9.12451L5.85767 9.12287L6.82684 8.29344L6.82738 8.2959L8.4349 6.92109L8.43181 6.9199L9.40065 6.09075L9.40345 6.09276L10.647 5.02921L10.6431 5.02747L11.6317 4.18144ZM10.8401 3.82085L9.79551 4.71479C9.19374 4.53445 8.59524 4.44428 8 4.44428C5.89379 4.44428 3.74791 5.57326 1.56238 7.8312C2.28553 8.66434 3.00195 9.36107 3.71166 9.92142L2.78762 10.7122C1.22944 9.46093 0.237946 8.10454 0.162 8.01006L0 7.80548L0.162 7.60091C0.305 7.42302 3.694 3.23986 8 3.23986C9.00689 3.23986 9.96346 3.46837 10.8401 3.82085ZM5.61329 8.29398C5.60451 8.21047 5.6 8.12569 5.6 8.03986C5.6 6.71438 6.67452 5.63986 8 5.63986C8.21443 5.63986 8.42228 5.66798 8.62009 5.72073L5.61329 8.29398ZM13.3994 5.29214C14.8498 6.37943 15.7651 7.51025 15.838 7.60091L16 7.80548L15.838 8.01006C15.695 8.18795 12.307 12.8399 8 12.8399C7.03743 12.8399 6.12069 12.6074 5.27578 12.2444L6.29817 11.3694C6.87003 11.5551 7.4373 11.6479 8 11.6479C10.0832 11.6479 12.2302 10.3757 14.4413 7.8312C13.779 7.14777 13.1205 6.56776 12.4657 6.09119L13.3994 5.29214ZM10.3937 7.86447C10.3979 7.92239 10.4 7.98087 10.4 8.03986C10.4 9.36534 9.32548 10.4399 8 10.4399C7.8131 10.4399 7.63119 10.4185 7.45658 10.3781L10.3937 7.86447Z" fill="#232632"/>
</g>
</svg>
