<svg width="150" height="150" viewBox="0 0 150 150" fill="none" xmlns="http://www.w3.org/2000/svg">
<g id="Vector">
<path d="M46.875 0H0V46.875H46.875V0ZM37.5 37.5H9.375V9.375H37.5V37.5Z" fill="#232632"/>
<path d="M28.125 18.75H18.75V28.125H28.125V18.75Z" fill="#232632"/>
<path d="M103.125 0V46.875H150V0H103.125ZM140.625 37.5H112.5V9.375H140.625V37.5Z" fill="#232632"/>
<path d="M131.25 18.75H121.875V28.125H131.25V18.75Z" fill="#232632"/>
<path d="M0 150H46.875V103.125H0V150ZM9.375 112.5H37.5V140.625H9.375V112.5Z" fill="#232632"/>
<path d="M28.125 121.875H18.75V131.25H28.125V121.875Z" fill="#232632"/>
<path d="M93.75 0H75V9.375H93.75V0Z" fill="#232632"/>
<path d="M75 37.5H84.375V28.125H93.75V18.75H65.625V9.375H56.25V28.125H75V37.5Z" fill="#232632"/>
<path d="M65.625 37.5H56.25V46.875H65.625V37.5Z" fill="#232632"/>
<path d="M93.75 46.875H84.375V56.25H56.25V65.625H93.75V46.875Z" fill="#232632"/>
<path d="M9.375 84.375H18.75V75H9.375V56.25H0V93.75H9.375V84.375Z" fill="#232632"/>
<path d="M28.125 56.25H18.75V65.625H28.125V56.25Z" fill="#232632"/>
<path d="M56.25 93.75H75V84.375H65.625V75H46.875V56.25H37.5V75H28.125V93.75H37.5V84.375H56.25V93.75Z" fill="#232632"/>
<path d="M93.75 75H84.375V93.75H93.75V75Z" fill="#232632"/>
<path d="M84.375 103.125H56.25V112.5H75V140.625H56.25V150H84.375V140.625H103.125V131.25H84.375V103.125Z" fill="#232632"/>
<path d="M65.625 121.875H56.25V131.25H65.625V121.875Z" fill="#232632"/>
<path d="M103.125 103.125H93.75V121.875H103.125V103.125Z" fill="#232632"/>
<path d="M140.625 121.875H112.5V150H121.875V131.25H140.625V121.875Z" fill="#232632"/>
<path d="M150 140.625H131.25V150H150V140.625Z" fill="#232632"/>
<path d="M150 103.125H140.625V112.5H150V103.125Z" fill="#232632"/>
<path d="M112.5 112.5H121.875V84.375H103.125V93.75H112.5V112.5Z" fill="#232632"/>
<path d="M131.25 65.625H121.875V56.25H112.5V65.625H103.125V75H140.625V65.625H150V56.25H131.25V65.625Z" fill="#232632"/>
<path d="M150 84.375H131.25V93.75H150V84.375Z" fill="#232632"/>
</g>
</svg>
