<svg width="18" height="18" viewBox="0 0 18 18" fill="none" xmlns="http://www.w3.org/2000/svg">
<g id="Icon/Picture">
<path id="Border" fill-rule="evenodd" clip-rule="evenodd" d="M0.899902 1.7998H17.0999V16.1998H0.899902V1.7998ZM2.2499 11.3157V14.8498H15.7499V13.3348L11.3173 9.42132L10.3172 10.4163L11.2228 11.2512L10.2957 12.2407L5.90412 8.11934L2.2499 11.3157ZM2.2499 3.1498V9.50464L5.90412 6.31439L9.32859 9.50464L11.2564 7.5727L15.7499 11.535V3.1498H2.2499ZM13.0499 7.1998C12.3043 7.1998 11.6999 6.59539 11.6999 5.8498C11.6999 5.10422 12.3043 4.4998 13.0499 4.4998C13.7955 4.4998 14.3999 5.10422 14.3999 5.8498C14.3999 6.59539 13.7955 7.1998 13.0499 7.1998Z" fill="#191B23"/>
</g>
</svg>
