<svg width="18" height="18" viewBox="0 0 18 18" fill="none" xmlns="http://www.w3.org/2000/svg">
<g id="Icon/Reload">
<path id="Vector" d="M16.1703 8.17175H16.1695C16.0608 8.17184 15.9532 8.19333 15.8529 8.23501C15.7525 8.27668 15.6613 8.33771 15.5846 8.41462C15.5078 8.49153 15.4469 8.58281 15.4054 8.68325C15.3639 8.78368 15.3426 8.89131 15.3427 8.99998C15.3417 10.1601 15.0226 11.2978 14.4203 12.2893C13.818 13.2808 12.9554 14.0883 11.9263 14.6239C10.8972 15.1595 9.74103 15.4028 8.58337 15.3273C7.4257 15.2518 6.31088 14.8604 5.36008 14.1956C2.49488 12.1893 1.79602 8.22599 3.80229 5.3607C5.80855 2.49541 9.77188 1.79648 12.6371 3.80284C13.0706 4.10558 13.4645 4.46129 13.8098 4.86171H11.4811C11.2616 4.86171 11.0511 4.94889 10.8959 5.10408C10.7408 5.25927 10.6536 5.46975 10.6536 5.68922C10.6536 5.90869 10.7408 6.11917 10.8959 6.27436C11.0511 6.42955 11.2616 6.51673 11.4811 6.51673H15.3427C15.5622 6.51673 15.7727 6.42955 15.9279 6.27436C16.083 6.11917 16.1702 5.90869 16.1702 5.68922V1.82751C16.1702 1.60804 16.083 1.39756 15.9279 1.24237C15.7727 1.08718 15.5622 1 15.3427 1C15.1233 1 14.9128 1.08718 14.7576 1.24237C14.6024 1.39756 14.5152 1.60804 14.5152 1.82751V3.20555C14.2248 2.93003 13.9144 2.67648 13.5864 2.447C12.7259 1.84452 11.7553 1.41741 10.7298 1.19007C9.70428 0.962726 8.64406 0.939596 7.60963 1.122C6.5752 1.30441 5.58683 1.68878 4.70094 2.25316C3.81506 2.81755 3.04901 3.5509 2.44654 4.41134C1.22979 6.14908 0.753178 8.29901 1.12156 10.3882C1.48993 12.4773 2.67313 14.3346 4.41084 15.5513C5.74874 16.4937 7.34515 16.9997 8.98162 17C9.45296 16.9998 9.92339 16.9584 10.3875 16.8764C12.2395 16.5497 13.9173 15.5809 15.1261 14.1403C16.3349 12.6996 16.9976 10.8792 16.9977 8.99853C16.9975 8.7792 16.9103 8.56891 16.7551 8.41388C16.5999 8.25885 16.3896 8.17176 16.1703 8.17175Z" fill="#191B23"/>
</g>
</svg>
