<svg width="16" height="16" viewBox="0 0 16 16" fill="none" xmlns="http://www.w3.org/2000/svg">
<g id="Icon/Send">
<path id="Send" fill-rule="evenodd" clip-rule="evenodd" d="M15.1267 1.65017C15.0626 1.59734 14.9714 1.58509 14.8941 1.61878L0.924603 7.71763C0.849396 7.75047 0.800966 7.82098 0.800062 7.89889C0.799158 7.9768 0.845995 8.04827 0.920471 8.08261L3.68005 9.25287C3.75254 9.28632 9.44005 6.47 9.44005 6.47L5.97754 10.1149C5.88927 10.2078 5.84005 10.3311 5.84005 10.4592V12.8996C5.84005 13.3473 6.3833 13.5694 6.6969 13.2498L8.35284 11.5625L11.2337 12.9326C11.2901 12.9579 11.3552 12.959 11.4124 12.9356C11.4697 12.9122 11.5132 12.8666 11.5319 12.8107L15.1901 1.86282C15.2157 1.78637 15.1908 1.703 15.1267 1.65017Z" fill="#232632"/>
</g>
</svg>
