<svg width="40" height="40" viewBox="0 0 40 40" fill="none" xmlns="http://www.w3.org/2000/svg">
<path fill-rule="evenodd" clip-rule="evenodd" d="M33.4924 3.8148V15.9509H21.3425C19.9138 15.9509 18.5323 16.5176 17.5286 17.5329C16.525 18.5481 15.9464 19.9176 15.9464 21.3461V38.8891H3.80832C3.08807 38.8891 2.40323 38.6058 1.90731 38.0981C1.39959 37.6023 1.11621 36.9058 1.11621 36.1974V8.97383C1.11621 8.25369 1.39959 7.56897 1.90731 7.06133C3.20614 5.76272 5.76837 3.20091 7.0672 1.9023C7.57492 1.39466 8.27156 1.11133 8.98001 1.11133H30.7885C32.2762 1.11133 33.4924 2.31549 33.4924 3.8148Z" fill="#7B61FF"/>
<path fill-rule="evenodd" clip-rule="evenodd" d="M21.3425 18.6544C20.6222 18.6544 19.9374 18.9377 19.4415 19.4454C18.9337 19.9412 18.6504 20.6377 18.6504 21.346V38.8891H36.1963C36.9166 38.8891 37.6014 38.6058 38.0973 38.0981C38.6051 37.6023 38.8884 36.9058 38.8884 36.1974V18.6544H21.3425ZM33.2208 31.6523L29.6077 34.5447C29.3598 34.7454 29.0646 34.8398 28.7694 34.8398C28.4742 34.8398 28.1672 34.7454 27.9311 34.5447L24.318 31.6523C23.7394 31.1919 23.6449 30.3419 24.1054 29.7516C24.5659 29.1731 25.4161 29.0787 26.0064 29.5391L27.4351 30.6724V24.0377C27.4351 23.294 28.0373 22.6919 28.7812 22.6919C29.5251 22.6919 30.1273 23.294 30.1273 24.0377V30.6724L31.556 29.5391C32.1345 29.0787 32.9847 29.1731 33.457 29.7516C33.9293 30.3301 33.823 31.1801 33.2444 31.6523H33.2208Z" fill="#232632"/>
</svg>
