<svg width="55" height="22" viewBox="0 0 55 22" fill="none" xmlns="http://www.w3.org/2000/svg">
<g id="BnB">
<path d="M8.70591 18.5127C9.45615 18.5127 10.0709 18.4268 10.5502 18.255C11.04 18.0731 11.4307 17.8355 11.7225 17.5424C12.0143 17.2493 12.2174 16.9157 12.3321 16.5417C12.4467 16.1576 12.504 15.7634 12.504 15.3591C12.504 14.9143 12.4363 14.515 12.3008 14.1613C12.1653 13.8075 11.9465 13.5093 11.6443 13.2667C11.3422 13.014 10.9462 12.822 10.4565 12.6906C9.97715 12.5592 9.38321 12.4935 8.67465 12.4935H4.689V18.5127H8.70591ZM4.689 3.45693V9.40041H7.76811C8.42457 9.40041 9.00809 9.34987 9.51867 9.24879C10.0292 9.13761 10.4565 8.96577 10.8003 8.73329C11.1442 8.5008 11.4047 8.19757 11.5818 7.82357C11.7694 7.43947 11.8632 6.97955 11.8632 6.44383C11.8632 5.898 11.785 5.43303 11.6287 5.04893C11.4828 4.66483 11.2536 4.35654 10.941 4.12405C10.6284 3.89157 10.2324 3.72479 9.75312 3.62371C9.2738 3.51252 8.70591 3.45693 8.04945 3.45693H4.689ZM8.04945 0C9.57077 0 10.8681 0.141512 11.9413 0.424535C13.025 0.697451 13.9055 1.09166 14.5828 1.60717C15.2705 2.11257 15.7707 2.72915 16.0833 3.45693C16.3959 4.1847 16.5522 4.99839 16.5522 5.898C16.5522 6.4034 16.474 6.88858 16.3177 7.35355C16.1718 7.81852 15.9374 8.25821 15.6144 8.67264C15.3018 9.07696 14.8954 9.4459 14.3952 9.77946C13.8951 10.113 13.3011 10.396 12.6134 10.6285C14.1556 10.9823 15.2966 11.5585 16.0364 12.357C16.7762 13.1555 17.1461 14.1916 17.1461 15.4652C17.1461 16.3951 16.9585 17.2594 16.5834 18.0579C16.2187 18.8564 15.6821 19.5488 14.9735 20.1351C14.265 20.7213 13.3897 21.1813 12.3477 21.5148C11.3161 21.8383 10.1282 22 8.78406 22H0V0H8.04945Z" fill="white"/>
<path d="M23.8607 8.18746C24.1837 7.88422 24.5171 7.60625 24.861 7.35355C25.2153 7.10085 25.5852 6.88353 25.9707 6.70158C26.3667 6.51964 26.7887 6.37813 27.2367 6.27705C27.6952 6.17597 28.1902 6.12543 28.7216 6.12543C29.5969 6.12543 30.3731 6.272 31.0504 6.56513C31.7277 6.85826 32.2956 7.26763 32.7541 7.79325C33.223 8.31886 33.5721 8.94555 33.8013 9.67333C34.041 10.4011 34.1608 11.1996 34.1608 12.0689V22H29.8626V12.0689C29.8626 11.1996 29.6542 10.5275 29.2374 10.0524C28.8206 9.56719 28.2058 9.3246 27.393 9.3246C26.7887 9.3246 26.2208 9.45095 25.6894 9.70365C25.1579 9.95635 24.6526 10.3101 24.1733 10.765V22H19.8594V6.36802H22.5165C23.0583 6.36802 23.4178 6.61061 23.5949 7.0958L23.8607 8.18746Z" fill="white"/>
<path d="M46.5598 18.5127C47.31 18.5127 47.9248 18.4268 48.4041 18.255C48.8939 18.0731 49.2846 17.8355 49.5764 17.5424C49.8681 17.2493 50.0713 16.9157 50.186 16.5417C50.3006 16.1576 50.3579 15.7634 50.3579 15.3591C50.3579 14.9143 50.2902 14.515 50.1547 14.1613C50.0192 13.8075 49.8004 13.5093 49.4982 13.2667C49.1961 13.014 48.8001 12.822 48.3104 12.6906C47.831 12.5592 47.2371 12.4935 46.5285 12.4935H42.5429V18.5127H46.5598ZM42.5429 3.45693V9.40041H45.622C46.2785 9.40041 46.862 9.34987 47.3726 9.24879C47.8831 9.13761 48.3104 8.96577 48.6542 8.73329C48.9981 8.5008 49.2586 8.19757 49.4357 7.82357C49.6233 7.43947 49.7171 6.97955 49.7171 6.44383C49.7171 5.898 49.6389 5.43303 49.4826 5.04893C49.3367 4.66483 49.1075 4.35654 48.7949 4.12405C48.4823 3.89157 48.0863 3.72479 47.607 3.62371C47.1277 3.51252 46.5598 3.45693 45.9033 3.45693H42.5429ZM45.9033 0C47.4247 0 48.7219 0.141512 49.7952 0.424535C50.8789 0.697451 51.7594 1.09166 52.4367 1.60717C53.1244 2.11257 53.6246 2.72915 53.9372 3.45693C54.2498 4.1847 54.4061 4.99839 54.4061 5.898C54.4061 6.4034 54.3279 6.88858 54.1716 7.35355C54.0257 7.81852 53.7913 8.25821 53.4683 8.67264C53.1557 9.07696 52.7493 9.4459 52.2491 9.77946C51.749 10.113 51.155 10.396 50.4673 10.6285C52.0095 10.9823 53.1504 11.5585 53.8903 12.357C54.6301 13.1555 55 14.1916 55 15.4652C55 16.3951 54.8124 17.2594 54.4373 18.0579C54.0726 18.8564 53.536 19.5488 52.8274 20.1351C52.1189 20.7213 51.2436 21.1813 50.2016 21.5148C49.17 21.8383 47.9821 22 46.638 22H37.8539V0H45.9033Z" fill="white"/>
</g>
</svg>
