<svg width="25" height="24" viewBox="0 0 25 24" fill="none" xmlns="http://www.w3.org/2000/svg">
<path fill-rule="evenodd" clip-rule="evenodd" d="M19.1 12.2C21.53 12.2 23.5 10.1405 23.5 7.6C23.5 5.05949 21.53 3 19.1 3C17.0498 3 15.3271 4.46599 14.8386 6.45H2.6C1.99249 6.45 1.5 6.96488 1.5 7.6C1.5 8.23513 1.99249 8.75 2.6 8.75H14.8386C15.3271 10.734 17.0498 12.2 19.1 12.2ZM16.9 7.6C16.9 8.87026 17.8849 9.9 19.1 9.9C20.3151 9.9 21.3 8.87026 21.3 7.6C21.3 6.32974 20.3151 5.3 19.1 5.3C17.8849 5.3 16.9 6.32974 16.9 7.6ZM1.5 16.8C1.5 14.2595 3.46995 12.2 5.9 12.2C7.95022 12.2 9.67293 13.666 10.1614 15.65H22.4C23.0075 15.65 23.5 16.1649 23.5 16.8C23.5 17.4351 23.0075 17.95 22.4 17.95H10.1614C9.67293 19.934 7.95022 21.4 5.9 21.4C3.46995 21.4 1.5 19.3405 1.5 16.8ZM8.1 16.8C8.1 15.5297 7.11503 14.5 5.9 14.5C4.68497 14.5 3.7 15.5297 3.7 16.8C3.7 18.0703 4.68497 19.1 5.9 19.1C7.11503 19.1 8.1 18.0703 8.1 16.8Z" fill="#191B23"/>
</svg>
