<svg width="20" height="20" viewBox="0 0 20 20" fill="none" xmlns="http://www.w3.org/2000/svg">
<path fill-rule="evenodd" clip-rule="evenodd" d="M18 16.9285L16.9285 18L12.5293 13.6008C11.4217 14.4769 10.0219 15 8.5 15C4.91015 15 2 12.0899 2 8.5C2 4.91015 4.91015 2 8.5 2C12.0899 2 15 4.91015 15 8.5C15 10.0219 14.4769 11.4217 13.6008 12.5293L18 16.9285ZM8.51526 13.5153C11.2767 13.5153 13.5153 11.2767 13.5153 8.51526C13.5153 5.75384 11.2767 3.51526 8.51526 3.51526C5.75384 3.51526 3.51526 5.75384 3.51526 8.51526C3.51526 11.2767 5.75384 13.5153 8.51526 13.5153Z" fill="#232632"/>
</svg>
