<svg width="167" height="66" viewBox="0 0 167 66" fill="none" xmlns="http://www.w3.org/2000/svg">
<g id="BnB" opacity="0.05">
<path d="M26.4343 55.5382C28.7123 55.5382 30.579 55.2805 32.0344 54.765C33.5214 54.2192 34.7079 53.5065 35.5938 52.6272C36.4797 51.7478 37.0966 50.7471 37.4446 49.6251C37.7927 48.4728 37.9667 47.2901 37.9667 46.0772C37.9667 44.7429 37.761 43.5451 37.3497 42.4838C36.9384 41.4225 36.274 40.5279 35.3565 39.8001C34.4389 39.042 33.2367 38.4659 31.7496 38.0717C30.2942 37.6775 28.4908 37.4804 26.3394 37.4804H14.2375V55.5382H26.4343ZM14.2375 10.3708V28.2012H23.5868C25.58 28.2012 27.3518 28.0496 28.9021 27.7464C30.4524 27.4128 31.7496 26.8973 32.7937 26.1999C33.8378 25.5024 34.6288 24.5927 35.1666 23.4707C35.7361 22.3184 36.0209 20.9387 36.0209 19.3315C36.0209 17.694 35.7836 16.2991 35.309 15.1468C34.8661 13.9945 34.17 13.0696 33.2208 12.3722C32.2717 11.6747 31.0694 11.1744 29.614 10.8711C28.1586 10.5376 26.4343 10.3708 24.4411 10.3708H14.2375ZM24.4411 0C29.0603 0 32.9994 0.424535 36.2582 1.2736C39.5486 2.09235 42.2221 3.27499 44.2786 4.82151C46.3668 6.3377 47.8855 8.18746 48.8346 10.3708C49.7838 12.5541 50.2584 14.9952 50.2584 17.694C50.2584 19.2102 50.0211 20.6657 49.5465 22.0606C49.1036 23.4556 48.3917 24.7746 47.4109 26.0179C46.4617 27.2309 45.2278 28.3377 43.7091 29.3384C42.1905 30.3391 40.3871 31.1881 38.2989 31.8856C42.9814 32.9469 46.4459 34.6754 48.6923 37.071C50.9386 39.4666 52.0618 42.5748 52.0618 46.3956C52.0618 49.1854 51.4923 51.7781 50.3533 54.1737C49.246 56.5693 47.6165 58.6465 45.4651 60.4052C43.3137 62.164 40.656 63.5438 37.4921 64.5445C34.3598 65.5148 30.753 66 26.6716 66H0V0H24.4411Z" fill="#232632"/>
<path d="M72.4496 24.5624C73.4304 23.6527 74.4429 22.8187 75.487 22.0606C76.5627 21.3026 77.6859 20.6506 78.8565 20.1048C80.0588 19.5589 81.3401 19.1344 82.7006 18.8312C84.0927 18.5279 85.5956 18.3763 87.2092 18.3763C89.8668 18.3763 92.2239 18.816 94.2805 19.6954C96.337 20.5748 98.0613 21.8029 99.4534 23.3797C100.877 24.9566 101.937 26.8367 102.633 29.02C103.361 31.2033 103.725 33.5989 103.725 36.2068V66H90.6736V36.2068C90.6736 33.5989 90.0408 31.5824 88.7753 30.1571C87.5097 28.7016 85.643 27.9738 83.1752 27.9738C81.3401 27.9738 79.6158 28.3529 78.0022 29.111C76.3887 29.8691 74.8542 30.9304 73.3988 32.295V66H60.3003V19.1041H68.3682C70.0134 19.1041 71.105 19.8318 71.6428 21.2874L72.4496 24.5624Z" fill="#232632"/>
<path d="M141.372 55.5382C143.65 55.5382 145.517 55.2805 146.973 54.765C148.46 54.2192 149.646 53.5065 150.532 52.6272C151.418 51.7478 152.035 50.7471 152.383 49.6251C152.731 48.4728 152.905 47.2901 152.905 46.0772C152.905 44.7429 152.699 43.5451 152.288 42.4838C151.877 41.4225 151.212 40.5279 150.295 39.8001C149.377 39.042 148.175 38.4659 146.688 38.0717C145.232 37.6775 143.429 37.4804 141.278 37.4804H129.176V55.5382H141.372ZM129.176 10.3708V28.2012H138.525C140.518 28.2012 142.29 28.0496 143.84 27.7464C145.391 27.4128 146.688 26.8973 147.732 26.1999C148.776 25.5024 149.567 24.5927 150.105 23.4707C150.674 22.3184 150.959 20.9387 150.959 19.3315C150.959 17.694 150.722 16.2991 150.247 15.1468C149.804 13.9945 149.108 13.0696 148.159 12.3722C147.21 11.6747 146.008 11.1744 144.552 10.8711C143.097 10.5376 141.372 10.3708 139.379 10.3708H129.176ZM139.379 0C143.999 0 147.938 0.424535 151.196 1.2736C154.487 2.09235 157.16 3.27499 159.217 4.82151C161.305 6.3377 162.824 8.18746 163.773 10.3708C164.722 12.5541 165.197 14.9952 165.197 17.694C165.197 19.2102 164.959 20.6657 164.485 22.0606C164.042 23.4556 163.33 24.7746 162.349 26.0179C161.4 27.2309 160.166 28.3377 158.647 29.3384C157.129 30.3391 155.325 31.1881 153.237 31.8856C157.92 32.9469 161.384 34.6754 163.63 37.071C165.877 39.4666 167 42.5748 167 46.3956C167 49.1854 166.43 51.7781 165.292 54.1737C164.184 56.5693 162.555 58.6465 160.403 60.4052C158.252 62.164 155.594 63.5438 152.43 64.5445C149.298 65.5148 145.691 66 141.61 66H114.938V0H139.379Z" fill="#232632"/>
</g>
</svg>
