<svg width="60" height="24" viewBox="0 0 60 24" fill="none" xmlns="http://www.w3.org/2000/svg">
<g id="BnB">
<path d="M9.49735 20.1957C10.3158 20.1957 10.9865 20.102 11.5094 19.9145C12.0436 19.7161 12.4699 19.4569 12.7882 19.1371C13.1065 18.8174 13.3281 18.4535 13.4532 18.0455C13.5782 17.6265 13.6407 17.1964 13.6407 16.7553C13.6407 16.2702 13.5668 15.8346 13.4191 15.4487C13.2713 15.0627 13.0326 14.7374 12.7029 14.4728C12.3733 14.1971 11.9413 13.9876 11.4071 13.8442C10.8842 13.7009 10.2362 13.6292 9.46325 13.6292H5.11527V20.1957H9.49735ZM5.11527 3.77119V10.255H8.4743C9.19044 10.255 9.827 10.1999 10.384 10.0896C10.941 9.9683 11.4071 9.78084 11.7822 9.52722C12.1573 9.2736 12.4415 8.9428 12.6347 8.5348C12.8393 8.11578 12.9416 7.61406 12.9416 7.02964C12.9416 6.43418 12.8564 5.92695 12.6859 5.50793C12.5267 5.0889 12.2767 4.75259 11.9356 4.49897C11.5946 4.24535 11.1627 4.06341 10.6398 3.95314C10.1169 3.83184 9.49735 3.77119 8.78122 3.77119H5.11527ZM8.78122 0C10.4408 0 11.8561 0.154376 13.0269 0.463129C14.2091 0.760855 15.1696 1.1909 15.9085 1.75327C16.6587 2.30462 17.2044 2.97726 17.5454 3.77119C17.8864 4.56513 18.0569 5.45279 18.0569 6.43418C18.0569 6.98553 17.9717 7.51482 17.8011 8.02205C17.642 8.52929 17.3862 9.00896 17.0339 9.46106C16.6928 9.90214 16.2495 10.3046 15.7039 10.6685C15.1583 11.0324 14.5103 11.3411 13.7601 11.5948C15.4424 11.9807 16.6871 12.6092 17.4942 13.4804C18.3013 14.3515 18.7048 15.4817 18.7048 16.8711C18.7048 17.8856 18.5002 18.8284 18.091 19.6995C17.6932 20.5706 17.1077 21.326 16.3348 21.9655C15.5618 22.6051 14.6069 23.1068 13.4702 23.4707C12.3449 23.8236 11.049 24 9.58261 24H0V0H8.78122Z" fill="white"/>
<path d="M26.0298 8.93177C26.3822 8.60096 26.7459 8.29773 27.1211 8.02205C27.5075 7.74638 27.9111 7.5093 28.3317 7.31082C28.7636 7.11234 29.224 6.95796 29.7128 6.84769C30.213 6.73742 30.7529 6.68229 31.3326 6.68229C32.2875 6.68229 33.1343 6.84218 33.8732 7.16196C34.6121 7.48174 35.2316 7.92833 35.7318 8.50172C36.2433 9.07512 36.6241 9.75879 36.8742 10.5527C37.1356 11.3467 37.2663 12.2178 37.2663 13.1661V24H32.5774V13.1661C32.5774 12.2178 32.35 11.4845 31.8953 10.9662C31.4406 10.4369 30.77 10.1723 29.8833 10.1723C29.224 10.1723 28.6045 10.3101 28.0248 10.5858C27.445 10.8615 26.8937 11.2474 26.3708 11.7436V24H21.6648V6.94693H24.5634C25.1545 6.94693 25.5467 7.21158 25.7399 7.74087L26.0298 8.93177Z" fill="white"/>
<path d="M50.7925 20.1957C51.611 20.1957 52.2816 20.102 52.8045 19.9145C53.3388 19.7161 53.765 19.4569 54.0833 19.1371C54.4016 18.8174 54.6233 18.4535 54.7483 18.0455C54.8734 17.6265 54.9359 17.1964 54.9359 16.7553C54.9359 16.2702 54.862 15.8346 54.7142 15.4487C54.5664 15.0627 54.3277 14.7374 53.9981 14.4728C53.6684 14.1971 53.2365 13.9876 52.7022 13.8442C52.1793 13.7009 51.5314 13.6292 50.7584 13.6292H46.4104V20.1957H50.7925ZM46.4104 3.77119V10.255H49.7695C50.4856 10.255 51.1222 10.1999 51.6792 10.0896C52.2362 9.9683 52.7022 9.78084 53.0773 9.52722C53.4524 9.2736 53.7366 8.9428 53.9299 8.5348C54.1345 8.11578 54.2368 7.61406 54.2368 7.02964C54.2368 6.43418 54.1515 5.92695 53.981 5.50793C53.8219 5.0889 53.5718 4.75259 53.2308 4.49897C52.8898 4.24535 52.4578 4.06341 51.9349 3.95314C51.412 3.83184 50.7925 3.77119 50.0764 3.77119H46.4104ZM50.0764 0C51.736 0 53.1512 0.154376 54.322 0.463129C55.5042 0.760855 56.4648 1.1909 57.2037 1.75327C57.9539 2.30462 58.4995 2.97726 58.8405 3.77119C59.1816 4.56513 59.3521 5.45279 59.3521 6.43418C59.3521 6.98553 59.2668 7.51482 59.0963 8.02205C58.9372 8.52929 58.6814 9.00896 58.329 9.46106C57.988 9.90214 57.5447 10.3046 56.999 10.6685C56.4534 11.0324 55.8055 11.3411 55.0552 11.5948C56.7376 11.9807 57.9823 12.6092 58.7894 13.4804C59.5965 14.3515 60 15.4817 60 16.8711C60 17.8856 59.7954 18.8284 59.3862 19.6995C58.9883 20.5706 58.4029 21.326 57.6299 21.9655C56.8569 22.6051 55.9021 23.1068 54.7654 23.4707C53.64 23.8236 52.3441 24 50.8778 24H41.2952V0H50.0764Z" fill="white"/>
</g>
</svg>
